<svg t="1501427885909" class="icon" style="" viewBox="0 0 1025 1024" version="1.1" xmlns="http://www.w3.org/2000/svg" p-id="1445" xmlns:xlink="http://www.w3.org/1999/xlink" width="200.1953125" height="200"><defs><style type="text/css"></style></defs><path d="M991.509333 55.253333l-22.677333-22.677333C947.754667 11.562667 919.872 0 890.176 0c-29.738667 0-57.664 11.562667-78.677333 32.554667L156.032 688.021333c-0.917333 0.938667-1.365333 2.112-2.090667 3.136-0.576 0.832-1.386667 1.450667-1.877333 2.389333L2.261333 993.130667c-4.096 8.170667-2.474667 18.133333 4.010667 24.618667C10.368 1021.824 15.829333 1024 21.376 1024c3.242667 0 6.506667-0.704 9.536-2.218667l299.562667-149.802667c1.024-0.512 1.706667-1.386667 2.624-2.048 0.96-0.682667 2.069333-1.088 2.922667-1.941333l569.237333-569.216 0 0c0 0 0 0 0 0l86.250667-86.229333C1034.837333 169.194667 1034.837333 98.602667 991.509333 55.253333zM740.394667 164.117333l119.552 119.573333L320.96 822.698667l-119.616-119.594667L740.394667 164.117333zM177.024 739.157333l107.882667 107.861333-215.829333 107.946667L177.024 739.157333zM961.301333 182.357333l-71.146667 71.146667-119.552-119.573333 71.146667-71.146667c25.898667-25.898667 71.018667-25.898667 96.896 0l22.656 22.677333c12.906667 12.928 20.053333 30.165333 20.053333 48.448S974.208 169.429333 961.301333 182.357333z" p-id="1446"></path></svg>
